<svg width="12" height="12" viewBox="0 0 12 12" fill="none" xmlns="http://www.w3.org/2000/svg">
<path fill-rule="evenodd" clip-rule="evenodd" d="M11.6152 10.2289L7.3845 5.97436L11.639 1.74361C12.0311 1.35368 12.0322 0.720815 11.643 0.329401C11.2537 -0.0620123 10.6209 -0.0644905 10.2287 0.325444L5.97425 4.55619L1.7435 0.301697C1.35427 -0.0897169 0.721413 -0.0921951 0.32929 0.297739C-0.0628326 0.687673 -0.0638969 1.32053 0.325332 1.71195L4.55608 5.96644L0.301585 10.1972C-0.0905372 10.5871 -0.0916016 11.22 0.297627 11.6114C0.686857 12.0028 1.31971 12.0053 1.71184 11.6154L5.96633 7.38461L10.1971 11.6391C10.5863 12.0305 11.2192 12.033 11.6113 11.6431C12.0034 11.2531 12.0045 10.6203 11.6152 10.2289Z" fill="black"/>
</svg>
